<svg width="20" height="20" viewBox="0 0 20 20" fill="none" xmlns="http://www.w3.org/2000/svg">
<path d="M14.0514 3.73889L15.4576 2.33265C16.0678 1.72245 17.0572 1.72245 17.6674 2.33265C18.2775 2.94284 18.2775 3.93216 17.6674 4.54235L8.81849 13.3912C8.37792 13.8318 7.83453 14.1556 7.23741 14.3335L5 15L5.66648 12.7626C5.84435 12.1655 6.1682 11.6221 6.60877 11.1815L14.0514 3.73889ZM14.0514 3.73889L16.25 5.93749M15 11.6667V15.625C15 16.6605 14.1605 17.5 13.125 17.5H4.375C3.33947 17.5 2.5 16.6605 2.5 15.625V6.87499C2.5 5.83946 3.33947 4.99999 4.375 4.99999H8.33333" stroke="#596372" stroke-width="1.25" stroke-linecap="round" stroke-linejoin="round"/>
</svg>
