<svg width="146" height="153" viewBox="0 0 146 153" fill="none" xmlns="http://www.w3.org/2000/svg">
<path d="M115.001 33.4996C115.001 40.1273 120.374 45.5 127.001 45.5C133.628 45.5 139.001 40.1273 139.001 33.4996C139.001 26.8727 133.628 21.5 127.001 21.5C120.374 21.5 115.001 26.8727 115.001 33.4996Z" fill="#7CD0B0"/>
<path d="M127.907 26.9323L129.108 30.6304H132.998C133.603 30.6304 133.856 31.4053 133.365 31.7621L130.219 34.0474L131.421 37.7464C131.608 38.3219 130.949 38.8007 130.459 38.4457L127.312 36.1587L124.166 38.4457C123.677 38.8007 123.017 38.3219 123.204 37.7464L124.406 34.0474L121.26 31.7621C120.77 31.4053 121.022 30.6304 121.627 30.6304H125.516L126.718 26.9323C126.906 26.3559 127.72 26.3559 127.907 26.9323Z" fill="white"/>
<path d="M82.3491 0.792969C79.8597 8.26097 74.1904 9.09029 74.1904 9.09029C74.1904 9.09029 79.8597 9.92097 82.3491 17.3876C84.8384 9.92097 90.5078 9.09029 90.5078 9.09029C90.5078 9.09029 84.8384 8.26097 82.3491 0.792969Z" fill="#DEEFFA"/>
<path d="M49.3504 135.793C46.8598 143.261 41.1904 144.09 41.1904 144.09C41.1904 144.09 46.8598 144.92 49.3504 152.388C51.8384 144.92 57.5091 144.09 57.5091 144.09C57.5091 144.09 51.8384 143.261 49.3504 135.793Z" fill="#DEEFFA"/>
<path d="M139.902 93.793C138.158 99.021 134.19 99.6023 134.19 99.6023C134.19 99.6023 138.158 100.182 139.902 105.409C141.645 100.182 145.613 99.6023 145.613 99.6023C145.613 99.6023 141.645 99.021 139.902 93.793Z" fill="#DEEFFA"/>
<path d="M8.90112 30.793C7.15979 36.0196 3.19043 36.601 3.19043 36.601C3.19043 36.601 7.15979 37.181 8.90112 42.4076C10.6438 37.181 14.6131 36.601 14.6131 36.601C14.6131 36.601 10.6438 36.0196 8.90112 30.793Z" fill="#DEEFFA"/>
<path d="M121.956 75.6702C121.956 104.876 98.2785 128.553 69.0732 128.553C39.8679 128.553 16.1904 104.876 16.1904 75.6702C16.1904 46.4649 39.8679 22.793 69.0732 22.793C98.2785 22.793 121.956 46.4649 121.956 75.6702Z" fill="#DEEFFA"/>
<path d="M47.6364 81.9625L63.2463 93.3687C64.7897 94.4962 66.957 94.2007 68.1393 92.6955L91.6908 62.7841C92.9058 61.2351 92.6431 59.0021 91.0941 57.787C89.5507 56.5719 87.3176 56.8347 86.1026 58.3781L64.6747 85.6021L51.8346 76.2155C50.2473 75.0606 48.0196 75.4055 46.8592 76.9927C45.7044 78.5799 46.0492 80.8021 47.6364 81.9625Z" fill="#4D82C6"/>
<path d="M0.400391 125.75C0.400391 133.62 6.78039 140 14.651 140C22.5225 140 28.9034 133.62 28.9034 125.75C28.9034 117.879 22.5225 111.5 14.651 111.5C6.78039 111.5 0.400391 117.879 0.400391 125.75Z" fill="#77A9F2"/>
<path d="M16.3187 130.329C14.1625 130.366 11.9794 130.395 9.99695 130.258C9.36988 130.215 8.827 129.217 9.58934 128.903C9.26864 128.738 8.9435 128.579 8.80375 128.219C8.67117 127.88 8.8297 127.417 9.18534 127.33C8.43733 127.514 8.14261 126.328 8.72578 125.945C8.41673 125.682 8.15965 125.335 8.09515 124.935C8.02975 124.534 8.19368 124.082 8.55022 123.888C8.78403 123.761 9.06084 123.757 9.32689 123.755C10.2236 123.748 11.1203 123.741 12.017 123.734C11.7742 122.332 11.7008 120.803 12.4138 119.571C12.6288 119.199 13.2058 118.755 13.6635 119.04C14.0926 119.308 13.9743 119.973 13.9519 120.393C13.8633 122.138 14.8559 123.893 16.3976 124.715C16.3976 124.715 16.2954 128.433 16.3187 130.329Z" fill="white"/>
<path d="M17.1025 130.315H20.3615V124.707H17.1025V130.315Z" fill="white"/>
</svg>
